<svg width="70" height="48" viewBox="0 0 70 48" fill="none" xmlns="http://www.w3.org/2000/svg">
<path d="M45.6677 0.5L42.4558 2.43777C38.851 4.60932 35.6287 7.07699 32.8728 9.76804L32.5689 10.0694H32.134C25.8675 10.059 13.3346 10.0642 9.64072 10.0694V15.4982H18.857C21.2725 15.5034 24.2485 15.5034 25.7313 15.4982H27.7852L26.5801 17.1451C26.0561 17.8672 25.5636 18.6465 25.0816 19.3997C24.9506 19.6127 24.8144 19.8257 24.6781 20.0387L24.5838 20.2102C23.7455 21.6077 22.9701 23.0363 22.2837 24.465L22.0007 25.0572H9.64072V47.5H0.0366766L0.0261976 46.4766C0.0157186 45.6817 0.0157186 36.5384 0.0157186 32.933L0 31.5043V0.51039H1.0479C5.69536 0.505195 15.4356 0.51039 24.2695 0.51039H41.9109L45.6677 0.5Z" fill="#E4012B"/>
<path d="M46.7786 38.9855L46.7943 39.0536L46.8624 38.9855H46.7786Z" fill="#E4012B"/>
<path d="M66.3849 10.1422L66.7884 10.1214L66.8093 10.1006C67.108 10.0954 67.4014 10.085 67.6896 10.0746C68.1192 10.0591 68.5279 10.0435 68.9261 10.0539L70.0002 10.0798V0.713088L68.9628 0.702698H68.5331C52.4949 0.702698 37.0226 9.61748 29.0166 23.504L28.1416 25.0573H28.1574C24.6416 31.5564 22.7973 38.9178 22.8183 46.4663V47.5001H62.5705V46.4195C62.5705 44.7363 63.2307 43.1518 64.4358 41.9621C65.6357 40.7724 67.2285 40.1179 68.9261 40.1179H70.0002V30.5797H68.9575H68.8632C63.4036 30.5797 58.316 33.385 55.4186 37.9515C53.9463 37.9463 51.1117 37.9463 49.1993 37.9463C52.4635 30.4082 60.3961 25.1248 68.6746 25.1248C68.7637 25.1248 68.8527 25.1248 68.9418 25.1248L70.0002 25.1352V15.5243L68.968 15.5087C55.3033 15.3061 42.5346 24.8911 38.9246 37.9463H33.2292C36.7292 22.839 50.7607 10.9838 66.3849 10.1422ZM46.7786 38.9853H46.8625L46.7943 39.0529L46.7786 38.9853Z" fill="#E4012B"/>
</svg>
